<svg width="33" height="34" viewBox="0 0 33 34" fill="none" xmlns="http://www.w3.org/2000/svg">
<path fill-rule="evenodd" clip-rule="evenodd" d="M23.3376 0.382953C21.587 0.300845 21.0303 0.284424 16.5686 0.284424C12.1068 0.284424 11.5501 0.305772 9.79959 0.382953C8.04905 0.465062 6.86013 0.739302 5.81243 1.14656C4.71617 1.5583 3.72306 2.20449 2.90252 3.03997C2.06634 3.85994 1.42004 4.85321 1.00911 5.94988C0.601851 6.99758 0.32761 8.1865 0.245502 9.93705C0.163394 11.6876 0.146973 12.2443 0.146973 16.706C0.146973 21.1678 0.168321 21.7245 0.245502 23.475C0.32761 25.2239 0.601851 26.4161 1.00911 27.4622C1.42118 28.5583 2.06733 29.5513 2.90252 30.3721C3.72282 31.2079 4.716 31.8541 5.81243 32.2655C6.86013 32.6711 8.05069 32.947 9.79959 33.0291C11.5501 33.1112 12.1068 33.1276 16.5686 33.1276C21.0303 33.1276 21.587 33.1063 23.3376 33.0291C25.0865 32.947 26.2787 32.6711 27.3247 32.2655C28.4206 31.8529 29.4135 31.2068 30.2346 30.3721C31.0707 29.552 31.717 28.5588 32.1281 27.4622C32.5337 26.4145 32.8096 25.2239 32.8917 23.475C32.9738 21.7245 32.9902 21.1678 32.9902 16.706C32.9902 12.2443 32.9688 11.6876 32.8917 9.93705C32.8096 8.18814 32.5337 6.99594 32.1281 5.94988C31.7158 4.85388 31.0697 3.86088 30.2346 3.03997C29.3216 2.12857 28.4086 1.56367 27.3247 1.14656C26.277 0.739302 25.0865 0.465062 23.3376 0.382953ZM8.35784 16.7059C8.35784 12.1712 12.0339 8.49513 16.5686 8.49513C21.1033 8.49513 24.7794 12.1712 24.7794 16.7059C24.7794 21.2406 21.1033 24.9167 16.5686 24.9167C12.0339 24.9167 8.35784 21.2406 8.35784 16.7059ZM27.2427 8.08459C27.2427 6.95091 26.3237 6.03189 25.19 6.03189C24.0563 6.03189 23.1373 6.95091 23.1373 8.08459C23.1373 9.21826 24.0563 10.1373 25.19 10.1373C26.3237 10.1373 27.2427 9.21826 27.2427 8.08459ZM21.4951 16.7059C21.4951 13.9851 19.2895 11.7795 16.5686 11.7795C13.8478 11.7795 11.6422 13.9851 11.6422 16.7059C11.6422 19.4268 13.8478 21.6324 16.5686 21.6324C19.2895 21.6324 21.4951 19.4268 21.4951 16.7059Z" fill="#222124"/>
</svg>
