<svg width="34" height="34" viewBox="0 0 34 34" fill="none" xmlns="http://www.w3.org/2000/svg">
<path fill-rule="evenodd" clip-rule="evenodd" d="M0.970581 16.706C0.970581 25.7757 8.32254 33.1276 17.3922 33.1276C26.4618 33.1276 33.8138 25.7757 33.8138 16.706C33.8138 7.63638 26.4618 0.284424 17.3922 0.284424C8.32254 0.284424 0.970581 7.63638 0.970581 16.706ZM12.3065 18.6158L12.2852 18.6273V18.6289L8.18471 17.3481C7.29795 17.0771 7.29138 16.4662 8.38177 16.0294L24.3649 9.85487C25.2927 9.47389 25.8182 9.9534 25.5177 11.1489L22.7967 23.9939C22.6062 24.9069 22.056 25.1253 21.2908 24.7033L17.1033 21.6029L15.1524 23.4881C15.1451 23.4951 15.1378 23.5021 15.1306 23.509C14.9385 23.6937 14.7767 23.8492 14.4791 23.8888C14.172 23.9315 13.9191 23.8395 13.7352 23.3288L12.3065 18.6158Z" fill="#222124"/>
</svg>
