<svg width="34" height="27" viewBox="0 0 34 27" fill="none" xmlns="http://www.w3.org/2000/svg">
<path fill-rule="evenodd" clip-rule="evenodd" d="M33.4163 13.7059C33.4163 13.7059 33.4163 7.59705 32.6659 4.67072C32.2537 3.05812 31.0352 1.78709 29.4834 1.35027C26.6769 0.568604 16.9947 0.568604 16.9947 0.568604C16.9947 0.568604 7.31748 0.568604 4.5061 1.35027C2.96082 1.78052 1.7407 3.05319 1.32359 4.67072C0.57312 7.59705 0.57312 13.7059 0.57312 13.7059C0.57312 13.7059 0.57312 19.8147 1.32359 22.7411C1.73577 24.3537 2.95425 25.6247 4.5061 26.0615C7.31748 26.8432 16.9947 26.8432 16.9947 26.8432C16.9947 26.8432 26.6769 26.8432 29.4834 26.0615C31.0286 25.6313 32.2488 24.3586 32.6659 22.7411C33.4163 19.8147 33.4163 13.7059 33.4163 13.7059ZM23.5635 13.7059L13.7105 19.4535V7.95837L23.5635 13.7059Z" fill="#222124"/>
</svg>
