<svg width="32" height="33" viewBox="0 0 32 33" fill="none" xmlns="http://www.w3.org/2000/svg">
<path fill-rule="evenodd" clip-rule="evenodd" d="M4.22454 0.926514H27.9968C30.0449 0.926514 31.7112 2.5928 31.7112 4.64093V28.4132C31.7112 30.4613 30.0449 32.1276 27.9968 32.1276H4.22454C2.17642 32.1276 0.510132 30.4613 0.510132 28.4132V4.64093C0.510132 2.5928 2.17642 0.926514 4.22454 0.926514ZM24.5172 14.5642C24.6884 14.5634 24.8594 14.5547 25.0298 14.5382H25.0327V11.0689C22.3471 10.8726 20.1877 8.78078 19.9061 6.10274H16.9197L16.8885 20.6588C16.8885 22.4447 15.3114 23.8517 13.5255 23.8517C11.74 23.8517 10.2925 22.4042 10.2925 20.6187C10.2925 18.8331 11.74 17.3856 13.5255 17.3856C13.6249 17.3856 13.7211 17.3988 13.8173 17.4119C13.8505 17.4165 13.8837 17.421 13.917 17.425V14.3034C13.8861 14.3015 13.8553 14.2993 13.8244 14.2972C13.7254 14.2903 13.6263 14.2834 13.5255 14.2834C10.027 14.2834 7.19094 17.1194 7.19094 20.6179C7.19094 24.1164 10.027 26.9525 13.5255 26.9525C17.024 26.9525 19.8601 24.1164 19.8601 20.6179V12.0473C20.8885 13.6181 22.6397 14.5644 24.5172 14.5642Z" fill="#222124"/>
</svg>
